<?xml version="1.0" standalone="no"?>
<!DOCTYPE svg PUBLIC "-//W3C//DTD SVG 20010904//EN"
 "http://www.w3.org/TR/2001/REC-SVG-20010904/DTD/svg10.dtd">
<svg version="1.0" xmlns="http://www.w3.org/2000/svg"
 width="260.000000pt" height="260.000000pt" viewBox="0 0 260.000000 260.000000"
 preserveAspectRatio="xMidYMid meet">
<metadata>
Created by potrace 1.11, written by Peter Selinger 2001-2013
</metadata>
<g transform="translate(0.000000,260.000000) scale(0.100000,-0.100000)"
fill="#000000" stroke="none">
<path d="M0 1300 l0 -700 1299 0 1300 0 -2 698 -2 697 -1297 3 -1298 2 0 -700z
m2490 0 l0 -590 -1190 0 -1190 0 0 590 0 590 1190 0 1190 0 0 -590z"/>
<path d="M1783 1694 c-253 -67 -379 -336 -270 -574 32 -69 142 -173 213 -200
65 -25 170 -33 234 -19 182 41 301 213 281 405 -1 14 -321 14 -322 0 -9 -98
-5 -102 100 -101 89 1 91 0 91 -22 0 -31 -39 -91 -81 -126 -127 -104 -334 -43
-412 123 -30 65 -30 178 1 242 49 101 142 166 244 172 91 5 154 -19 223 -85
l40 -38 43 39 44 38 -34 32 c-56 54 -95 81 -150 102 -66 25 -176 31 -245 12z"/>
<path d="M664 1690 c-12 -5 -32 -34 -49 -72 -15 -34 -55 -119 -87 -186 -32
-68 -58 -125 -58 -127 0 -1 -31 -67 -69 -146 -87 -182 -111 -236 -111 -246 0
-8 118 -10 123 -2 6 8 61 125 73 155 l13 31 170 0 169 0 38 -89 c20 -49 42
-92 47 -95 13 -8 105 -10 116 -3 5 3 -40 113 -100 245 -59 132 -118 263 -130
290 -47 106 -118 255 -121 254 -2 0 -12 -4 -24 -9z m52 -315 c12 -27 34 -76
48 -107 l25 -58 -119 0 -119 0 23 53 c13 28 41 88 61 132 35 76 38 79 48 55 6
-14 21 -47 33 -75z"/>
<path d="M1210 1690 l-35 -5 0 -387 c0 -340 2 -388 15 -389 8 0 32 -2 53 -3
21 -1 41 2 44 8 4 6 7 182 7 392 l1 382 -25 4 c-14 2 -41 1 -60 -2z"/>
</g>
</svg>
